# xmcd CD database file
#
# Track frame offsets:
#	150
#	14502
#	31775
#	50370
#	61630
#	98422
#	115077
#	126220
#	152937
#	169832
#	196205
#
# Disc length: 2665 seconds
#
# Revision: 1
# Processed by: cddbd v1.5.2PL0 Copyright (c) Steve Scherf et al.
# Submitted via: CDex 1.70beta2
#
DISCID=810a670b
DTITLE=John Lennon - Imagine The Altenate Album
DYEAR=1971
DGENRE=Rock
TTITLE0=Imagine
TTITLE1=Crippled Inside
TTITLE2=Jealous Guy
TTITLE3=It's So Hard
TTITLE4=How Do You Sleep
TTITLE5=Give Me Some Truth
TTITLE6=Oh My Love
TTITLE7=How Do You Sleep 2
TTITLE8=How
TTITLE9=Oh Yoko
TTITLE10=San Francisco Bay Blues
EXTD=YEAR: 1971
EXTT0=
EXTT1=
EXTT2=
EXTT3=
EXTT4=
EXTT5=
EXTT6=
EXTT7=
EXTT8=
EXTT9=
EXTT10=
PLAYORDER=
